<svg width="512" height="512" viewBox="0 0 512 512" fill="none" xmlns="http://www.w3.org/2000/svg">
  <!-- Background gradient -->
  <rect width="512" height="512" rx="128" fill="url(#gradient)"/>

  <!-- Card stack illustration -->
  <!-- Back card -->
  <rect x="140" y="180" width="240" height="180" rx="16" fill="rgba(255,255,255,0.2)" transform="rotate(-8 260 270)"/>

  <!-- Middle card -->
  <rect x="130" y="160" width="240" height="180" rx="16" fill="rgba(255,255,255,0.4)" transform="rotate(-4 250 250)"/>

  <!-- Front card -->
  <rect x="120" y="140" width="240" height="180" rx="16" fill="white"/>

  <!-- Card content: AI sparkle icon -->
  <circle cx="240" cy="190" r="20" fill="#1e3a8a"/>
  <path d="M240 170 L245 185 L260 190 L245 195 L240 210 L235 195 L220 190 L235 185 Z" fill="#7c3aed"/>

  <!-- Card text lines -->
  <rect x="160" y="230" width="120" height="8" rx="4" fill="#1e3a8a"/>
  <rect x="160" y="250" width="80" height="6" rx="3" fill="#6b7280"/>
  <rect x="160" y="270" width="100" height="6" rx="3" fill="#6b7280"/>

  <!-- Gradient definition -->
  <defs>
    <linearGradient id="gradient" x1="0" y1="0" x2="512" y2="512" gradientUnits="userSpaceOnUse">
      <stop offset="0%" stop-color="#1e3a8a"/>
      <stop offset="100%" stop-color="#7c3aed"/>
    </linearGradient>
  </defs>
</svg>
